<svg version="1.1" viewBox="254 257 222 138" fill="none" stroke="none" stroke-linecap="square" stroke-miterlimit="10" xmlns:xlink="http://www.w3.org/1999/xlink" xmlns="http://www.w3.org/2000/svg"><clipPath id="p.0"><path d="m0 0l960.0 0l0 720.0l-960.0 0l0 -720.0z" clip-rule="nonzero"/></clipPath><g clip-path="url(#p.0)"><path fill="#000000" fill-opacity="0.0" d="m0 0l960.0 0l0 720.0l-960.0 0z" fill-rule="evenodd"/><path fill="#ffffff" d="m262.3176 285.54633c0 -11.21405 9.09079 -20.30487 20.30487 -20.30487l164.61859 0c5.385193 0 10.549805 2.1392822 14.357727 5.947174c3.8078918 3.8078918 5.9471436 8.972534 5.9471436 14.357697l0 81.21704c0 11.214081 -9.09079 20.30487 -20.30487 20.30487l-164.61859 0c-11.214081 0 -20.30487 -9.09079 -20.30487 -20.30487z" fill-rule="evenodd"/><path stroke="#000000" stroke-width="4.0" stroke-linejoin="round" stroke-linecap="butt" d="m262.3176 285.54633c0 -11.21405 9.09079 -20.30487 20.30487 -20.30487l164.61859 0c5.385193 0 10.549805 2.1392822 14.357727 5.947174c3.8078918 3.8078918 5.9471436 8.972534 5.9471436 14.357697l0 81.21704c0 11.214081 -9.09079 20.30487 -20.30487 20.30487l-164.61859 0c-11.214081 0 -20.30487 -9.09079 -20.30487 -20.30487z" fill-rule="evenodd"/><path fill="#000000" d="m308.14435 363.00787c0 -4.8531494 3.9342651 -8.787415 8.787415 -8.787415c2.3305664 0 4.565674 0.92581177 6.213623 2.5737915c1.6479492 1.6479492 2.573761 3.8830566 2.573761 6.213623c0 4.8531494 -3.9342346 8.787415 -8.787384 8.787415c-4.8531494 0 -8.787415 -3.9342651 -8.787415 -8.787415z" fill-rule="evenodd"/><path stroke="#000000" stroke-width="1.0" stroke-linejoin="round" stroke-linecap="butt" d="m308.14435 363.00787c0 -4.8531494 3.9342651 -8.787415 8.787415 -8.787415c2.3305664 0 4.565674 0.92581177 6.213623 2.5737915c1.6479492 1.6479492 2.573761 3.8830566 2.573761 6.213623c0 4.8531494 -3.9342346 8.787415 -8.787384 8.787415c-4.8531494 0 -8.787415 -3.9342651 -8.787415 -8.787415z" fill-rule="evenodd"/><path fill="#000000" d="m340.14435 363.00787c0 -4.8531494 3.9342651 -8.787415 8.787415 -8.787415c2.3305664 0 4.565674 0.92581177 6.213623 2.5737915c1.6479492 1.6479492 2.573761 3.8830566 2.573761 6.213623c0 4.8531494 -3.9342346 8.787415 -8.787384 8.787415c-4.8531494 0 -8.787415 -3.9342651 -8.787415 -8.787415z" fill-rule="evenodd"/><path stroke="#000000" stroke-width="1.0" stroke-linejoin="round" stroke-linecap="butt" d="m340.14435 363.00787c0 -4.8531494 3.9342651 -8.787415 8.787415 -8.787415c2.3305664 0 4.565674 0.92581177 6.213623 2.5737915c1.6479492 1.6479492 2.573761 3.8830566 2.573761 6.213623c0 4.8531494 -3.9342346 8.787415 -8.787384 8.787415c-4.8531494 0 -8.787415 -3.9342651 -8.787415 -8.787415z" fill-rule="evenodd"/><path fill="#000000" d="m372.14435 363.00787c0 -4.8531494 3.9342651 -8.787415 8.787415 -8.787415c2.3305664 0 4.565674 0.92581177 6.213623 2.5737915c1.6479492 1.6479492 2.573761 3.8830566 2.573761 6.213623c0 4.8531494 -3.9342346 8.787415 -8.787384 8.787415c-4.8531494 0 -8.787415 -3.9342651 -8.787415 -8.787415z" fill-rule="evenodd"/><path stroke="#000000" stroke-width="1.0" stroke-linejoin="round" stroke-linecap="butt" d="m372.14435 363.00787c0 -4.8531494 3.9342651 -8.787415 8.787415 -8.787415c2.3305664 0 4.565674 0.92581177 6.213623 2.5737915c1.6479492 1.6479492 2.573761 3.8830566 2.573761 6.213623c0 4.8531494 -3.9342346 8.787415 -8.787384 8.787415c-4.8531494 0 -8.787415 -3.9342651 -8.787415 -8.787415z" fill-rule="evenodd"/><path fill="#000000" d="m404.14435 363.00787c0 -4.8531494 3.9342651 -8.787415 8.787415 -8.787415c2.3305664 0 4.565674 0.92581177 6.213623 2.5737915c1.6479492 1.6479492 2.573761 3.8830566 2.573761 6.213623c0 4.8531494 -3.9342346 8.787415 -8.787384 8.787415c-4.8531494 0 -8.787415 -3.9342651 -8.787415 -8.787415z" fill-rule="evenodd"/><path stroke="#000000" stroke-width="1.0" stroke-linejoin="round" stroke-linecap="butt" d="m404.14435 363.00787c0 -4.8531494 3.9342651 -8.787415 8.787415 -8.787415c2.3305664 0 4.565674 0.92581177 6.213623 2.5737915c1.6479492 1.6479492 2.573761 3.8830566 2.573761 6.213623c0 4.8531494 -3.9342346 8.787415 -8.787384 8.787415c-4.8531494 0 -8.787415 -3.9342651 -8.787415 -8.787415z" fill-rule="evenodd"/><path fill="#000000" d="m308.14435 289.30185c0 -4.8531494 3.9342651 -8.787415 8.787415 -8.787415c2.3305664 0 4.565674 0.92581177 6.213623 2.573761c1.6479492 1.6479797 2.573761 3.8830872 2.573761 6.2136536c0 4.8531494 -3.9342346 8.787384 -8.787384 8.787384c-4.8531494 0 -8.787415 -3.9342346 -8.787415 -8.787384z" fill-rule="evenodd"/><path stroke="#000000" stroke-width="1.0" stroke-linejoin="round" stroke-linecap="butt" d="m308.14435 289.30185c0 -4.8531494 3.9342651 -8.787415 8.787415 -8.787415c2.3305664 0 4.565674 0.92581177 6.213623 2.573761c1.6479492 1.6479797 2.573761 3.8830872 2.573761 6.2136536c0 4.8531494 -3.9342346 8.787384 -8.787384 8.787384c-4.8531494 0 -8.787415 -3.9342346 -8.787415 -8.787384z" fill-rule="evenodd"/><path fill="#000000" d="m340.14435 289.30185c0 -4.8531494 3.9342651 -8.787415 8.787415 -8.787415c2.3305664 0 4.565674 0.92581177 6.213623 2.573761c1.6479492 1.6479797 2.573761 3.8830872 2.573761 6.2136536c0 4.8531494 -3.9342346 8.787384 -8.787384 8.787384c-4.8531494 0 -8.787415 -3.9342346 -8.787415 -8.787384z" fill-rule="evenodd"/><path stroke="#000000" stroke-width="1.0" stroke-linejoin="round" stroke-linecap="butt" d="m340.14435 289.30185c0 -4.8531494 3.9342651 -8.787415 8.787415 -8.787415c2.3305664 0 4.565674 0.92581177 6.213623 2.573761c1.6479492 1.6479797 2.573761 3.8830872 2.573761 6.2136536c0 4.8531494 -3.9342346 8.787384 -8.787384 8.787384c-4.8531494 0 -8.787415 -3.9342346 -8.787415 -8.787384z" fill-rule="evenodd"/><path fill="#000000" d="m372.14435 289.30185c0 -4.8531494 3.9342651 -8.787415 8.787415 -8.787415c2.3305664 0 4.565674 0.92581177 6.213623 2.573761c1.6479492 1.6479797 2.573761 3.8830872 2.573761 6.2136536c0 4.8531494 -3.9342346 8.787384 -8.787384 8.787384c-4.8531494 0 -8.787415 -3.9342346 -8.787415 -8.787384z" fill-rule="evenodd"/><path stroke="#000000" stroke-width="1.0" stroke-linejoin="round" stroke-linecap="butt" d="m372.14435 289.30185c0 -4.8531494 3.9342651 -8.787415 8.787415 -8.787415c2.3305664 0 4.565674 0.92581177 6.213623 2.573761c1.6479492 1.6479797 2.573761 3.8830872 2.573761 6.2136536c0 4.8531494 -3.9342346 8.787384 -8.787384 8.787384c-4.8531494 0 -8.787415 -3.9342346 -8.787415 -8.787384z" fill-rule="evenodd"/><path fill="#000000" d="m404.14435 289.30185c0 -4.8531494 3.9342651 -8.787415 8.787415 -8.787415c2.3305664 0 4.565674 0.92581177 6.213623 2.573761c1.6479492 1.6479797 2.573761 3.8830872 2.573761 6.2136536c0 4.8531494 -3.9342346 8.787384 -8.787384 8.787384c-4.8531494 0 -8.787415 -3.9342346 -8.787415 -8.787384z" fill-rule="evenodd"/><path stroke="#000000" stroke-width="1.0" stroke-linejoin="round" stroke-linecap="butt" d="m404.14435 289.30185c0 -4.8531494 3.9342651 -8.787415 8.787415 -8.787415c2.3305664 0 4.565674 0.92581177 6.213623 2.573761c1.6479492 1.6479797 2.573761 3.8830872 2.573761 6.2136536c0 4.8531494 -3.9342346 8.787384 -8.787384 8.787384c-4.8531494 0 -8.787415 -3.9342346 -8.787415 -8.787384z" fill-rule="evenodd"/><path fill="#000000" d="m292.14435 326.15485c0 -4.8531494 3.9342651 -8.787384 8.787415 -8.787384c2.3305664 0 4.565674 0.92581177 6.213623 2.573761c1.6479492 1.6479492 2.573761 3.8830566 2.573761 6.213623c0 4.8531494 -3.9342346 8.787415 -8.787384 8.787415c-4.8531494 0 -8.787415 -3.9342651 -8.787415 -8.787415z" fill-rule="evenodd"/><path stroke="#000000" stroke-width="1.0" stroke-linejoin="round" stroke-linecap="butt" d="m292.14435 326.15485c0 -4.8531494 3.9342651 -8.787384 8.787415 -8.787384c2.3305664 0 4.565674 0.92581177 6.213623 2.573761c1.6479492 1.6479492 2.573761 3.8830566 2.573761 6.213623c0 4.8531494 -3.9342346 8.787415 -8.787384 8.787415c-4.8531494 0 -8.787415 -3.9342651 -8.787415 -8.787415z" fill-rule="evenodd"/><path fill="#000000" d="m324.14435 326.15485c0 -4.8531494 3.9342651 -8.787384 8.787415 -8.787384c2.3305664 0 4.565674 0.92581177 6.213623 2.573761c1.6479492 1.6479492 2.573761 3.8830566 2.573761 6.213623c0 4.8531494 -3.9342346 8.787415 -8.787384 8.787415c-4.8531494 0 -8.787415 -3.9342651 -8.787415 -8.787415z" fill-rule="evenodd"/><path stroke="#000000" stroke-width="1.0" stroke-linejoin="round" stroke-linecap="butt" d="m324.14435 326.15485c0 -4.8531494 3.9342651 -8.787384 8.787415 -8.787384c2.3305664 0 4.565674 0.92581177 6.213623 2.573761c1.6479492 1.6479492 2.573761 3.8830566 2.573761 6.213623c0 4.8531494 -3.9342346 8.787415 -8.787384 8.787415c-4.8531494 0 -8.787415 -3.9342651 -8.787415 -8.787415z" fill-rule="evenodd"/><path fill="#000000" d="m356.14435 326.15485c0 -4.8531494 3.9342651 -8.787384 8.787415 -8.787384c2.3305664 0 4.565674 0.92581177 6.213623 2.573761c1.6479492 1.6479492 2.573761 3.8830566 2.573761 6.213623c0 4.8531494 -3.9342346 8.787415 -8.787384 8.787415c-4.8531494 0 -8.787415 -3.9342651 -8.787415 -8.787415z" fill-rule="evenodd"/><path stroke="#000000" stroke-width="1.0" stroke-linejoin="round" stroke-linecap="butt" d="m356.14435 326.15485c0 -4.8531494 3.9342651 -8.787384 8.787415 -8.787384c2.3305664 0 4.565674 0.92581177 6.213623 2.573761c1.6479492 1.6479492 2.573761 3.8830566 2.573761 6.213623c0 4.8531494 -3.9342346 8.787415 -8.787384 8.787415c-4.8531494 0 -8.787415 -3.9342651 -8.787415 -8.787415z" fill-rule="evenodd"/><path fill="#000000" d="m388.14435 326.15485c0 -4.8531494 3.9342651 -8.787384 8.787415 -8.787384c2.3305664 0 4.565674 0.92581177 6.213623 2.573761c1.6479492 1.6479492 2.573761 3.8830566 2.573761 6.213623c0 4.8531494 -3.9342346 8.787415 -8.787384 8.787415c-4.8531494 0 -8.787415 -3.9342651 -8.787415 -8.787415z" fill-rule="evenodd"/><path stroke="#000000" stroke-width="1.0" stroke-linejoin="round" stroke-linecap="butt" d="m388.14435 326.15485c0 -4.8531494 3.9342651 -8.787384 8.787415 -8.787384c2.3305664 0 4.565674 0.92581177 6.213623 2.573761c1.6479492 1.6479492 2.573761 3.8830566 2.573761 6.213623c0 4.8531494 -3.9342346 8.787415 -8.787384 8.787415c-4.8531494 0 -8.787415 -3.9342651 -8.787415 -8.787415z" fill-rule="evenodd"/><path fill="#000000" d="m420.14435 326.15485c0 -4.8531494 3.9342651 -8.787384 8.787415 -8.787384c2.3305664 0 4.565674 0.92581177 6.213623 2.573761c1.6479492 1.6479492 2.573761 3.8830566 2.573761 6.213623c0 4.8531494 -3.9342346 8.787415 -8.787384 8.787415c-4.8531494 0 -8.787415 -3.9342651 -8.787415 -8.787415z" fill-rule="evenodd"/><path stroke="#000000" stroke-width="1.0" stroke-linejoin="round" stroke-linecap="butt" d="m420.14435 326.15485c0 -4.8531494 3.9342651 -8.787384 8.787415 -8.787384c2.3305664 0 4.565674 0.92581177 6.213623 2.573761c1.6479492 1.6479492 2.573761 3.8830566 2.573761 6.213623c0 4.8531494 -3.9342346 8.787415 -8.787384 8.787415c-4.8531494 0 -8.787415 -3.9342651 -8.787415 -8.787415z" fill-rule="evenodd"/></g></svg>