<svg width="1024" height="1024" viewBox="0 0 1024 1024" fill="none" xmlns="http://www.w3.org/2000/svg">
  <rect width="1024" height="1024" rx="224" fill="#0D1016"/>
  <rect x="208" y="338" width="608" height="348" rx="104" fill="#F6F3EE"/>
  <rect x="274" y="416" width="84" height="58" rx="29" fill="#0D1016"/>
  <rect x="386" y="416" width="84" height="58" rx="29" fill="#0D1016"/>
  <rect x="498" y="416" width="84" height="58" rx="29" fill="#0D1016"/>
  <rect x="610" y="416" width="84" height="58" rx="29" fill="#0D1016"/>
  <rect x="722" y="416" width="84" height="58" rx="29" fill="#0D1016"/>
  <rect x="246" y="506" width="84" height="58" rx="29" fill="#0D1016"/>
  <rect x="358" y="506" width="84" height="58" rx="29" fill="#0D1016"/>
  <rect x="470" y="506" width="84" height="58" rx="29" fill="#0D1016"/>
  <rect x="582" y="506" width="84" height="58" rx="29" fill="#0D1016"/>
  <rect x="694" y="506" width="84" height="58" rx="29" fill="#0D1016"/>
  <rect x="330" y="596" width="364" height="54" rx="27" fill="#0D1016"/>
</svg>
